<svg xmlns="http://www.w3.org/2000/svg" width="560" height="140" viewBox="0 0 560 140">
  <g id="Logo-White" transform="translate(-8398 -1236)">
    <g id="Placement-Area-4-1" transform="translate(8398 1236)" fill="#e523e5" stroke="#fff" stroke-width="1" opacity="0">
      <rect width="560" height="140" stroke="none"/>
      <rect x="0.5" y="0.5" width="559" height="139" fill="none"/>
    </g>
    <path id="logo" d="M48.893,0A46.6,46.6,0,0,1,94.248,36.785V22.526h8.673A4.935,4.935,0,0,1,107.8,26.71l1.355,8.853c4.258-9.179,12.773-13.032,24.483-13.032h2.514v-.006l.011.006H142.9a5.731,5.731,0,0,1,5.354,3.684l19.472,50.727,18.538-50.2a6.425,6.425,0,0,1,6.029-4.2H201.1v-.011h12.374l1.6,10.242c5.584-7.981,14.234-12.5,24.743-12.5,20.218,0,32.457,15.961,32.457,37.113,0,23.413-14.1,37.776-32.457,37.776-9.58,0-17.3-3.195-22.617-9.044v28.668a4.851,4.851,0,0,1-4.853,4.854H201.1V31.949l-26.856,72.918c-3.459,9.579-11.839,15.563-23.679,15.563H136.331V110.256a4.851,4.851,0,0,1,4.854-4.854h9.381c4.522,0,7.582-2.4,8.78-5.585l2.525-6.783h-4.387l-22-55.266,0,.051h-2.525c-14.5,0-22.346,7.317-22.346,21.018V88.168a4.851,4.851,0,0,1-4.854,4.854H94.248V56.239A46.592,46.592,0,0,1,48.893,93.022H35.411A13.383,13.383,0,0,1,25.94,89.1l-5.534-5.534a11.947,11.947,0,0,0-8.437-3.493H5.383A5.383,5.383,0,0,1,0,74.692V18.33a5.383,5.383,0,0,1,5.383-5.383h6.586a11.933,11.933,0,0,0,8.437-3.493L25.94,3.92A13.417,13.417,0,0,1,35.411,0ZM272.272,57.377v0ZM48.668,75.5H21.44a3.825,3.825,0,0,1-3.825-3.825V21.345A3.825,3.825,0,0,1,21.44,17.52H48.663A28.988,28.988,0,0,1,48.668,75.5ZM255.776,57.51c0-14.1-8.381-22.481-18.757-22.481-12.638,0-19.821,9.579-19.821,21.946,0,14.764,8.644,23.415,19.821,23.415s18.757-9.978,18.757-22.88M266.941,7.346h3.83V4.826H260.4v2.52h3.834v10.18h2.706Zm15.22,10.18h2.712V4.826h-3.2l-3.459,9.393L274.8,4.826h-3.268v12.7h2.778V10.31l2.666,7.216h2.44l2.745-7.475Z" transform="translate(8536 1246)" fill="#fff" fill-rule="evenodd"/>
  </g>
</svg>
